<?xml version="1.0" standalone="no"?>
<!DOCTYPE svg PUBLIC "-//W3C//DTD SVG 20010904//EN"
 "http://www.w3.org/TR/2001/REC-SVG-20010904/DTD/svg10.dtd">
<svg version="1.0" xmlns="http://www.w3.org/2000/svg"
 width="96.000000pt" height="96.000000pt" viewBox="0 0 96.000000 96.000000"
 preserveAspectRatio="xMidYMid meet">
<metadata>
Created by potrace 1.14, written by Peter Selinger 2001-2017
</metadata>
<g transform="translate(0.000000,96.000000) scale(0.100000,-0.100000)"
fill="#000000" stroke="none">
<path d="M463 840 c-51 -31 -67 -72 -68 -175 -1 -49 2 -100 6 -112 7 -20 4
-24 -31 -33 -60 -16 -269 -201 -270 -239 0 -20 67 -107 101 -132 16 -11 29
-16 29 -10 0 6 -9 15 -20 21 -11 6 -38 35 -61 65 l-41 55 28 34 c35 42 48 44
70 11 13 -20 14 -28 4 -40 -10 -12 -5 -24 29 -70 37 -49 77 -83 86 -73 2 2
-22 30 -55 63 -59 61 -64 75 -29 75 11 0 37 9 59 20 22 11 44 20 50 20 6 0 10
-36 10 -95 l0 -95 173 0 c115 0 167 4 157 10 -13 9 -13 10 0 10 12 0 14 10 12
45 -2 25 -1 57 2 71 7 24 8 25 25 10 10 -9 21 -13 24 -9 11 10 8 -2 -9 -43
-24 -56 -34 -94 -25 -94 4 0 18 29 30 65 13 36 27 65 32 65 5 0 8 3 7 8 -2 4
4 17 13 30 14 20 17 21 23 7 12 -32 6 -66 -24 -125 -39 -77 -22 -87 19 -11 48
91 42 122 -52 253 -43 61 -69 79 -139 102 -10 3 -18 10 -18 15 0 7 9 6 25 -1
36 -16 45 -3 54 80 5 56 4 75 -7 86 -11 11 -11 18 -3 35 20 36 -5 71 -69 97
-68 29 -106 30 -147 4z m65 -130 c15 0 15 -2 2 -10 -23 -15 -40 -12 -40 8 0
25 14 38 18 18 2 -9 11 -16 20 -16z m82 0 c0 -5 -9 -10 -20 -10 -11 0 -20 5
-20 10 0 6 9 10 20 10 11 0 20 -4 20 -10z m-60 -36 c0 -8 5 -12 10 -9 6 4 8
11 5 16 -4 5 1 9 9 9 9 0 16 -3 16 -8 0 -13 -30 -52 -40 -52 -13 0 -32 39 -25
50 10 15 25 12 25 -6z m100 -9 c0 -28 -15 -34 -24 -9 -3 8 -2 12 4 9 6 -3 10
1 10 9 0 9 2 16 5 16 3 0 5 -11 5 -25z m-140 1 c0 -23 31 -48 49 -41 25 10 70
12 84 3 9 -6 9 -14 -4 -35 -13 -24 -21 -28 -59 -27 -38 1 -41 0 -25 -13 11 -7
24 -13 30 -13 5 0 16 -9 22 -19 9 -15 9 -23 -1 -36 -10 -14 -23 -17 -59 -13
-48 6 -86 26 -68 37 21 13 28 54 14 82 -8 16 -15 38 -16 49 -2 25 -14 26 -19
3 -3 -17 -4 -17 -11 0 -5 13 -1 20 16 27 33 13 47 12 47 -4z m96 -23 c-11 -11
-19 6 -11 24 8 17 8 17 12 0 3 -10 2 -21 -1 -24z m14 -277 c0 -2 -7 -7 -16
-10 -8 -3 -12 -2 -9 4 6 10 25 14 25 6z m53 -3 c-7 -2 -21 -2 -30 0 -10 3 -4
5 12 5 17 0 24 -2 18 -5z m0 -20 c-7 -2 -21 -2 -30 0 -10 3 -4 5 12 5 17 0 24
-2 18 -5z m0 -20 c-7 -2 -21 -2 -30 0 -10 3 -4 5 12 5 17 0 24 -2 18 -5z m-10
-20 c-7 -2 -19 -2 -25 0 -7 3 -2 5 12 5 14 0 19 -2 13 -5z m-6 -19 c-3 -3 -12
-4 -19 -1 -8 3 -5 6 6 6 11 1 17 -2 13 -5z"/>
<path d="M580 598 c0 -11 38 -10 44 1 3 5 -5 8 -19 7 -14 0 -25 -4 -25 -8z"/>
</g>
</svg>
